<svg width="72" height="73" viewBox="0 0 72 73" fill="none" xmlns="http://www.w3.org/2000/svg">
<path fill-rule="evenodd" clip-rule="evenodd" d="M3 36.5C3 18.4127 17.6627 3.75 35.75 3.75C53.8373 3.75001 68.5 18.4127 68.5 36.5C68.5 54.5873 53.8373 69.25 35.75 69.25C17.6627 69.25 2.99999 54.5873 3 36.5ZM-4.50403e-06 36.5C-2.77794e-06 16.7558 16.0058 0.750003 35.75 0.750005C55.4942 0.750006 71.5 16.7558 71.5 36.5C71.5 56.2442 55.4942 72.25 35.75 72.25C16.0058 72.25 -6.23012e-06 56.2442 -4.50403e-06 36.5Z" fill="#1AC073"/>
<path d="M23.9594 39.7059C22.5948 38.5108 22.5948 36.3875 23.9594 35.1924L37.5966 23.2483C39.5361 21.5496 42.5732 22.9269 42.5732 25.505L42.5732 49.3932C42.5732 51.9714 39.5361 53.3487 37.5966 51.65L23.9594 39.7059Z" fill="#1AC073"/>
</svg>
